<svg id="レイヤー_1" data-name="レイヤー 1" xmlns="http://www.w3.org/2000/svg" viewBox="6 6 28 28"><defs><style>.cls-1{fill:#6c737a;}</style></defs><title>カメラ</title><rect class="cls-1" x="10.3" y="11.21" width="2.28" height="0.98"/><path class="cls-1" d="M31.68,12.84H26.27l-1.49-2.68H15.22l-1.49,2.68H8.32A1.31,1.31,0,0,0,7,14.14v14.4a1.3,1.3,0,0,0,1.3,1.3H31.68a1.3,1.3,0,0,0,1.3-1.3V14.14A1.31,1.31,0,0,0,31.68,12.84ZM20,28.2a6.64,6.64,0,1,1,6.63-6.63A6.63,6.63,0,0,1,20,28.2Zm7.37-11.33a1,1,0,1,1,1-1A1,1,0,0,1,27.37,16.87Z"/><path class="cls-1" d="M20,16.78a4.79,4.79,0,1,0,4.78,4.79A4.78,4.78,0,0,0,20,16.78Z"/></svg>
