<?xml version="1.0" encoding="UTF-8" standalone="no"?><!DOCTYPE svg PUBLIC "-//W3C//DTD SVG 1.1//EN" "http://www.w3.org/Graphics/SVG/1.1/DTD/svg11.dtd"><svg width="100%" height="100%" viewBox="0 0 75 50" version="1.1" xmlns="http://www.w3.org/2000/svg" xmlns:xlink="http://www.w3.org/1999/xlink" xml:space="preserve" xmlns:serif="http://www.serif.com/" style="fill-rule:evenodd;clip-rule:evenodd;stroke-linejoin:round;stroke-miterlimit:2;"><rect id="material_box" x="0" y="0" width="75" height="50" style="fill:none;"/><clipPath id="_clip1"><rect x="0" y="0" width="75" height="50"/></clipPath><g clip-path="url(#_clip1)"><g><path d="M75.003,23.035l-13.059,-0.038l5.58,-6.031l-2.873,-2.661l-9.836,10.631l9.778,10.686l2.888,-2.643l-5.546,-6.064l13.059,0.038l0.009,-3.918Z" style="fill:#fff;fill-rule:nonzero;"/><path d="M48.466,24.997c0,12.873 -10.593,23.466 -23.466,23.466c-12.873,0 -23.466,-10.593 -23.466,-23.466c0,-12.873 10.593,-23.466 23.466,-23.466c12.873,0 23.466,10.593 23.466,23.466Z" style="fill:#eab51f;fill-rule:nonzero;"/><path d="M25,1.531c0.001,0 0.002,0 0.003,0c12.875,0 23.469,10.594 23.469,23.469c0,12.875 -10.594,23.469 -23.469,23.469c-12.875,0 -23.469,-10.594 -23.469,-23.469l0,-0.006c0,-12.871 10.592,-23.463 23.463,-23.463c0.001,0 0.002,0 0.003,0m0,-1.531c-13.715,0 -25,11.285 -25,25c0,13.715 11.285,25 25,25c13.715,0 25,-11.285 25,-25c0,-0.001 0,-0.002 0,-0.003c-0.021,-13.706 -11.294,-24.978 -25,-24.997Z" style="fill:#fff;fill-rule:nonzero;"/><path d="M41.127,24.802l-7.077,-4.314l-17.961,0l-7.155,4.314l6.291,0l0,6.07l16.019,0l0,-6.07l9.883,0Z" style="fill:#25282d;fill-rule:nonzero;"/><path d="M37.823,29.739l-25.69,0l0,-12.669l5.132,-5.088l20.558,0l0,17.757Z" style="fill:#fff;fill-rule:nonzero;"/><path d="M38.26,30.179l-26.563,0l0,-13.292l5.388,-5.342l21.175,0l0,18.634Zm-25.69,-0.874l24.816,0l0,-16.884l-19.94,0l-4.876,4.83l0,12.054Z" style="fill:#243c60;fill-rule:nonzero;"/><path d="M17.513,17.204l-5.135,-0.026l5.135,-5.083l0,5.109Z" style="fill:#243c60;fill-rule:nonzero;"/><rect x="8.855" y="24.825" width="32.292" height="12.855" style="fill:#243c60;"/><path d="M30.094,29.528c0,-0.719 -0.583,-1.303 -1.302,-1.303l-7.584,0c-0.719,0 -1.302,0.584 -1.302,1.303c0,0.719 0.583,1.303 1.302,1.303l7.584,0c0.719,0 1.302,-0.584 1.302,-1.303Z" style="fill:#fff;"/></g></g></svg>