<svg id="レイヤー_1" data-name="レイヤー 1" xmlns="http://www.w3.org/2000/svg" viewBox="6 6 28 28"><defs><style>.cls-1{fill:#6c737a;}.cls-2{fill:none;stroke:#6c737a;stroke-miterlimit:10;stroke-width:1.09px;}</style></defs><title>写真</title><path class="cls-1" d="M33.35,8V32H6.65V8ZM8.1,9.46V30.54H31.9V9.46Z"/><path class="cls-2" d="M27.94,14.66a2.86,2.86,0,1,1-2.86-2.85A2.85,2.85,0,0,1,27.94,14.66Z"/><path class="cls-1" d="M13.38,16.2l13,14.7H7.74V22.51l5.64-6.31m0-1.63L6.65,22.09V32H28.84L13.39,14.57Z"/><path class="cls-1" d="M26.35,22.72l5.91,6.64V30.9H27.7l-4.26-5,2.91-3.19m0-1.63L22,25.88,27.2,32h6.14v-3l-7-7.85Z"/></svg>
