<svg xmlns="http://www.w3.org/2000/svg" version="1.1" viewBox="6 6 28 28" data-name="レイヤー 1" id="レイヤー_1"><defs id="defs4"><style id="style2"></style></defs><path id="path8" d="M33.35 8v24H6.65V8zM8.1 9.46v21.08h23.8V9.46z" fill="#6c737a"/><path d="M22.706 23.044l-.064.106-1.667-1.565-1.252 1.14 1.623 1.592-.139.058a3.65 3.65 0 01-1.402.261c-1.1 0-1.979-.395-2.613-1.173-.688-.84-1.037-2.1-1.037-3.744 0-1.633.35-2.892 1.037-3.743.635-.768 1.514-1.157 2.613-1.157 1.098 0 1.976.389 2.611 1.156.69.84 1.039 2.1 1.039 3.744 0 1.38-.253 2.499-.75 3.325m1.423 1.485l.057-.072c.948-1.186 1.43-2.78 1.43-4.738 0-2.045-.522-3.684-1.55-4.87-1.024-1.181-2.457-1.78-4.26-1.78s-3.238.599-4.262 1.78c-1.027 1.186-1.549 2.825-1.549 4.87 0 2.047.522 3.691 1.55 4.888 1.024 1.193 2.458 1.797 4.26 1.797 1.098 0 2.07-.229 2.89-.683l.064-.037 1.875 1.82 1.355-1.239z" id="path6" fill="#6c737a" fill-opacity="1" fill-rule="nonzero" stroke="none" stroke-width=".666"/></svg>