<?xml version="1.0" encoding="UTF-8" standalone="no"?><!DOCTYPE svg PUBLIC "-//W3C//DTD SVG 1.1//EN" "http://www.w3.org/Graphics/SVG/1.1/DTD/svg11.dtd"><svg width="100%" height="100%" viewBox="0 0 75 50" version="1.1" xmlns="http://www.w3.org/2000/svg" xmlns:xlink="http://www.w3.org/1999/xlink" xml:space="preserve" xmlns:serif="http://www.serif.com/" style="fill-rule:evenodd;clip-rule:evenodd;stroke-linejoin:round;stroke-miterlimit:2;"><rect id="send" x="0" y="0" width="75" height="50" style="fill:none;"/><clipPath id="_clip1"><rect x="0" y="0" width="75" height="50"/></clipPath><g clip-path="url(#_clip1)"><path d="M48.45,24.997c0,0.001 0,0.002 0,0.003c0,12.869 -10.589,23.459 -23.459,23.459c-12.869,0 -23.459,-10.59 -23.459,-23.459c0,-12.869 10.59,-23.459 23.459,-23.459c0.004,0 0.008,0 0.012,0c12.864,0.005 23.447,10.592 23.447,23.456Z" style="fill:#20b784;fill-rule:nonzero;"/><path d="M25.003,1.541c0.004,0 0.008,0 0.012,0c12.869,0 23.459,10.59 23.459,23.459c0,12.869 -10.59,23.459 -23.459,23.459c-12.87,0 -23.46,-10.59 -23.46,-23.459c0,-0.001 0,-0.002 0,-0.003c0,-12.864 10.583,-23.451 23.448,-23.456m0,-1.541c-0.001,0 -0.002,0 -0.003,0c-13.715,0 -25,11.285 -25,25c0,13.715 11.285,25 25,25c13.715,0 25,-11.285 25,-25c0,-0.001 0,-0.002 0,-0.003c-0.018,-13.706 -11.291,-24.979 -24.997,-24.997Z" style="fill:#fff;fill-rule:nonzero;"/><g><clipPath id="_clip2"><path d="M48.45,24.7c0.002,0.101 0.002,0.203 0.002,0.304c0,12.869 -10.589,23.459 -23.459,23.459c-12.869,0 -23.459,-10.59 -23.459,-23.459c0,-12.76 10.41,-23.299 23.169,-23.457c12.864,-0.161 23.582,10.289 23.747,23.153Z"/></clipPath><g clip-path="url(#_clip2)"><path d="M25.705,48.148c0,-5.724 -4.853,-10.361 -10.835,-10.361c-5.983,0 -10.839,4.637 -10.839,10.361c0,0.197 0.028,0.393 0.082,0.582c0.101,0.947 0.271,1.885 0.507,2.808c3.197,1.654 6.749,2.507 10.349,2.484c3.541,0.022 7.037,-0.804 10.194,-2.408c0.263,-1.008 0.433,-2.038 0.51,-3.076c0.022,-0.129 0.033,-0.26 0.032,-0.39Z" style="fill:#f28b0a;fill-rule:nonzero;"/><ellipse cx="14.564" cy="39.517" rx="2.988" ry="2.039" style="fill:#ec7d6b;"/><ellipse cx="25.003" cy="23.354" rx="3.029" ry="2.039" style="fill:#ec7d6b;"/><path d="M25.705,48.148c0,-5.724 -4.853,-10.361 -10.835,-10.361c-5.983,0 -10.839,4.637 -10.839,10.361c0,0.197 0.028,0.393 0.082,0.582c0.101,0.947 0.271,1.885 0.507,2.808c3.197,1.654 6.749,2.507 10.349,2.484c3.541,0.022 7.037,-0.804 10.194,-2.408c0.263,-1.008 0.433,-2.038 0.51,-3.076c0.022,-0.129 0.033,-0.26 0.032,-0.39Z" style="fill:#107bd5;fill-rule:nonzero;"/><ellipse cx="14.564" cy="39.517" rx="2.988" ry="2.039" style="fill:#ec7d6b;"/><path d="M35.518,31.594c0,-5.72 -4.853,-10.349 -10.838,-10.349c-5.986,0 -10.836,4.64 -10.836,10.361c0.001,0.197 0.027,0.393 0.079,0.583c0.101,0.952 0.271,1.895 0.51,2.822c6.439,3.28 14.069,3.307 20.531,0.073c0.263,-1.007 0.435,-2.035 0.513,-3.073c0.026,-0.137 0.04,-0.277 0.041,-0.417Z" style="fill:#8350c1;fill-rule:nonzero;"/><ellipse cx="24.243" cy="22.964" rx="2.956" ry="2.039" style="fill:#ec7d6b;"/><path d="M29.809,20.147c1.488,-0.313 2.949,-0.743 4.369,-1.287c-0.419,-1.792 -0.874,-3.573 -1.363,-5.342c-0.449,-1.622 -0.938,-3.254 -1.768,-4.707c-0.83,-1.453 -2.019,-2.712 -3.551,-3.294c-0.875,-0.296 -1.794,-0.435 -2.717,-0.411c-2.223,0 -4.538,0.489 -6.254,1.954c-0.658,0.557 -1.241,1.486 -1.188,2.36c-1.165,0.961 -1.314,2.682 -1.53,4.203c-0.273,1.936 -0.784,3.831 -1.52,5.642c1.322,1.188 3.265,1.165 5.013,1.057c1.966,-0.111 3.885,0 5.854,0c1.579,0.023 3.12,0.152 4.655,-0.175Z" style="fill:#243c60;fill-rule:nonzero;"/><path d="M30.892,15.583c0,3.691 -2.912,6.682 -6.492,6.682c-3.58,0 -6.493,-2.991 -6.493,-6.682l-0.506,-3.92l1.34,-3.065l2.417,-0.329l5.738,0.402l3.283,1.296l1.261,2.299l-0.548,3.317Z" style="fill:#ffca96;fill-rule:nonzero;"/><ellipse cx="27.418" cy="15.405" rx="0.69" ry="0.798" style="fill:#035;"/><path d="M26.413,18.837c0,0.582 -0.699,1.051 -1.559,1.051c-0.859,0 -1.558,-0.472 -1.558,-1.051l3.117,0Z" style="fill:#ec7d6b;fill-rule:nonzero;"/><path d="M17.559,14.355c0.783,-0.183 1.616,0.513 1.859,1.554c0.244,1.041 -0.194,2.035 -0.977,2.218c-0.782,0.183 -1.615,-0.514 -1.859,-1.555c-0.243,-1.041 0.195,-2.034 0.977,-2.217Z" style="fill:#ffca96;"/><ellipse cx="21.761" cy="15.405" rx="0.69" ry="0.798" style="fill:#035;"/><path d="M31.702,16.437c-0.961,-2.054 -3.023,-3.169 -5.024,-3.857c-2.001,-0.687 -4.125,-1.113 -5.878,-2.383c-0.291,-0.203 -0.583,-0.503 -0.539,-0.873c0.329,2.621 -0.623,5.391 -2.444,7.11c-0.711,-1.119 -1.238,-2.657 -0.964,-3.991c0.26,-1.309 1.039,-2.459 2.158,-3.186c-0.061,-0.344 0.193,-0.65 0.434,-0.874c2.109,-1.954 5.177,-2.5 7.83,-1.395c2.583,1.121 4.52,3.874 4.87,6.912c0.095,0.87 -0.058,1.75 -0.443,2.537Z" style="fill:#243c60;fill-rule:nonzero;"/><path d="M20.651,32.678c0.018,3.69 -2.866,6.699 -6.44,6.714c-3.574,0.014 -6.486,-2.96 -6.504,-6.653l-0.524,-3.92l1.311,-3.073l2.408,-0.338l5.733,0.373l3.271,1.29l1.267,2.292l-0.522,3.315Z" style="fill:#ffca96;fill-rule:nonzero;"/><path d="M16.137,31.627c0.373,-0.002 0.677,0.344 0.679,0.772c0.002,0.427 -0.3,0.776 -0.673,0.777c-0.373,0.002 -0.677,-0.344 -0.679,-0.772c-0.001,-0.427 0.3,-0.776 0.673,-0.777Z" style="fill:#243c60;"/><path d="M15.554,35.961c0,0.582 -0.702,1.054 -1.573,1.06c-0.871,0.006 -1.579,-0.463 -1.579,-1.046l3.152,-0.014Z" style="fill:#ec7d6b;fill-rule:nonzero;"/><path d="M18.893,33.236c0.249,-1.041 1.092,-1.734 1.881,-1.545c0.79,0.188 1.229,1.187 0.981,2.228c-0.249,1.042 -1.092,1.734 -1.881,1.546c-0.79,-0.189 -1.229,-1.187 -0.981,-2.229Z" style="fill:#ffca96;"/><path d="M21.921,33.456c-0.515,0.817 -1.078,1.603 -1.686,2.353c0.046,-1.13 -0.434,-2.214 -1.002,-3.183c-0.568,-0.97 -1.247,-1.894 -1.658,-2.934c-0.398,-1.037 -0.49,-2.168 -0.265,-3.256c-3.163,2.93 -7.127,4.854 -11.385,5.528c-0.219,-2.548 0.62,-5.4 2.315,-7.281c1.716,-1.907 4.15,-3.015 6.714,-3.059c0.681,-0.023 1.36,0.084 2.001,0.315c1.199,0.504 2.116,1.512 2.505,2.752c1.04,0.114 2.012,0.577 2.755,1.314c0.322,0.352 0.597,0.743 0.819,1.165c0.728,1.322 1.057,2.913 0.67,4.369c-0.388,1.456 -1.57,2.735 -3.041,2.997" style="fill:#fb0;fill-rule:nonzero;"/><path d="M20.22,35.844c0.444,-1.055 0.529,-2.227 0.242,-3.335c-0.309,-1.165 -1.017,-2.202 -1.634,-3.251c-0.618,-1.048 -1.419,-1.972 -1.36,-3.204c-0.264,0.607 -0.382,1.266 -0.347,1.926c0.05,0.769 0.285,1.514 0.685,2.173c0.969,1.846 2.304,3.617 2.414,5.691Z" style="fill:#f49921;fill-rule:nonzero;"/><path d="M11.162,31.671c0.364,-0.002 0.66,0.335 0.662,0.751c0.001,0.417 -0.292,0.756 -0.655,0.758c-0.364,0.001 -0.66,-0.336 -0.662,-0.752c-0.002,-0.416 0.292,-0.756 0.655,-0.757Z" style="fill:#243c60;"/><path d="M16.702,26.689l0.017,0c-3.556,1.838 -7.387,3.164 -10.794,5.287c2.187,-0.253 4.27,-1.084 6.294,-1.966c1.943,-0.875 3.698,-2.121 5.164,-3.667c0.008,-0.007 0.015,-0.014 0.021,-0.024c0.008,-0.018 0.015,-0.038 0.02,-0.058c0.017,-0.07 0.038,-0.14 0.058,-0.207c-0.196,0.28 -0.466,0.5 -0.78,0.635Z" style="fill:#f49921;fill-rule:nonzero;"/><path d="M47.486,47.413c0,-5.72 -4.852,-10.357 -10.835,-10.357c-5.983,0 -10.838,4.637 -10.838,10.357c0,0.198 0.027,0.394 0.081,0.583c0.101,0.952 0.27,1.895 0.507,2.822c6.439,3.285 14.072,3.312 20.535,0.073c0.262,-1.007 0.433,-2.035 0.51,-3.073c0.027,-0.133 0.04,-0.269 0.04,-0.405Z" style="fill:#ef4c48;fill-rule:nonzero;"/><path d="M44.678,28.865c0.102,-0.364 0.344,-0.702 0.309,-1.083c-0.052,-0.551 -0.664,-0.9 -0.687,-1.457c0.01,-0.179 0.039,-0.357 0.087,-0.53c0.152,-0.825 -0.29,-1.653 -1.06,-1.986c-0.158,-0.956 -0.911,-1.71 -1.867,-1.867c-0.076,-0.494 -0.5,-0.865 -0.999,-0.874c-0.12,0.014 -0.241,0.014 -0.361,0c-0.178,-0.07 -0.334,-0.184 -0.455,-0.332c-0.85,-0.778 -2.188,-0.723 -2.971,0.122c-0.696,-0.665 -1.708,-0.89 -2.621,-0.582l0.017,0.547c-0.517,-0.18 -1.091,-0.094 -1.532,0.23l-0.175,-0.023c-0.644,-0.074 -1.286,0.168 -1.721,0.649c-0.265,0.323 -0.422,0.72 -0.449,1.136c-0.527,0.069 -1.012,0.325 -1.366,0.723c-0.262,0.321 -0.404,0.724 -0.402,1.139c-0.193,0.227 -0.354,0.48 -0.477,0.751c-0.354,0.042 -0.663,0.262 -0.819,0.583c-0.135,0.401 -0.073,0.843 0.169,1.191c-0.621,0.29 -1.069,0.86 -1.203,1.532c-0.177,0.854 0.132,1.739 0.801,2.298c-0.25,0.728 0.172,1.576 0.769,1.969c0.597,0.394 1.314,0.443 2.001,0.478c2.307,0.122 4.615,0.191 6.924,0.207c2.117,0.014 4.351,-0.056 6.201,-1.165c0.438,-0.141 0.837,-0.383 1.165,-0.705c0.19,-0.209 0.327,-0.461 0.399,-0.734c0.023,-0.028 0.045,-0.057 0.064,-0.088c0.16,-0.225 0.126,-0.539 -0.078,-0.725c-0.021,-0.06 -0.046,-0.119 -0.076,-0.175c0.291,-0.206 0.294,-0.798 0.413,-1.229Z" style="fill:#7a3826;fill-rule:nonzero;"/><ellipse cx="35.701" cy="38.786" rx="2.808" ry="2.039" style="fill:#c1743a;"/><path d="M29.133,32.055c0,3.633 2.99,6.623 6.624,6.623c3.633,0 6.623,-2.99 6.623,-6.623c0,0 0.519,-3.918 0.519,-3.918l-1.358,-3.067l-2.464,-0.329l-5.866,0.399l-3.353,1.296l-1.284,2.298l0.559,3.321Z" style="fill:#d88b4c;fill-rule:nonzero;"/><ellipse cx="32.553" cy="31.795" rx="0.623" ry="0.731" style="fill:#035;"/><path d="M34.056,35.308c0,0.583 0.664,1.052 1.479,1.052c0.816,0 1.483,-0.469 1.483,-1.052l-2.962,0Z" style="fill:#dd4a3a;fill-rule:nonzero;"/><path d="M29.101,31.245c0.751,-0.147 1.528,0.583 1.734,1.63c0.206,1.048 -0.237,2.018 -0.987,2.166c-0.751,0.147 -1.528,-0.583 -1.734,-1.63c-0.206,-1.048 0.236,-2.018 0.987,-2.166Z" style="fill:#d88b4c;"/><path d="M40.769,32.99c0.207,-1.047 0.983,-1.778 1.734,-1.63c0.751,0.148 1.193,1.118 0.987,2.165c-0.206,1.048 -0.983,1.778 -1.733,1.63c-0.751,-0.147 -1.194,-1.118 -0.988,-2.165Z" style="fill:#d88b4c;"/><ellipse cx="38.131" cy="31.795" rx="0.623" ry="0.731" style="fill:#035;"/><path d="M42.948,27.211c-0.132,-1.152 -0.687,-2.215 -1.555,-2.983c-1.456,-1.165 -3.466,-0.952 -5.266,-0.67l-2.348,0.364c-0.173,0.023 -0.343,0.06 -0.51,0.111l0,-0.128c-0.906,-0.102 -1.809,0.253 -2.621,0.722c-0.951,0.509 -1.737,1.278 -2.266,2.217c-0.507,0.973 -0.603,2.243 -0.053,3.186c0.507,-0.032 0.819,-0.582 1.04,-1.089c0.76,0.405 1.812,-0.178 1.952,-1.081c0.643,-0.07 1.165,-0.582 1.497,-1.191c0.546,0.418 1.323,0.373 1.817,-0.105c-0.108,0.479 0.187,0.964 0.662,1.09c0.464,0.072 0.932,-0.12 1.211,-0.499c0.102,-0.122 0.213,-0.27 0.361,-0.259c0.088,0.017 0.169,0.056 0.236,0.114c0.491,0.325 1.142,0.287 1.591,-0.093c-0.129,0.402 0.04,0.843 0.405,1.057c0.349,0.178 0.738,0.261 1.13,0.242c-0.292,0.582 0.125,1.267 0.6,1.663c0.516,0.435 1.147,0.712 1.817,0.798c0.335,-1.123 0.437,-2.302 0.3,-3.466Z" style="fill:#7a3826;fill-rule:nonzero;"/><path d="M19.437,7.995c0,0 -2.074,1.489 -1.984,1.556c0.09,0.067 0.609,0.751 0.609,0.751l1.983,-0.836l-0.608,-1.471Z" style="fill:#243c60;fill-rule:nonzero;"/></g></g><path d="M75.05,23.048l-13.067,-0.037l5.584,-6.036l-2.875,-2.662l-9.842,10.637l9.784,10.693l2.889,-2.645l-5.549,-6.067l13.067,0.038l0.009,-3.921Z" style="fill:#fff;fill-rule:nonzero;"/></g></svg>