<?xml version="1.0" encoding="UTF-8" standalone="no"?><!DOCTYPE svg PUBLIC "-//W3C//DTD SVG 1.1//EN" "http://www.w3.org/Graphics/SVG/1.1/DTD/svg11.dtd"><svg width="100%" height="100%" viewBox="0 0 75 50" version="1.1" xmlns="http://www.w3.org/2000/svg" xmlns:xlink="http://www.w3.org/1999/xlink" xml:space="preserve" xmlns:serif="http://www.serif.com/" style="fill-rule:evenodd;clip-rule:evenodd;stroke-linejoin:round;stroke-miterlimit:2;"><rect id="submit" x="0" y="0" width="75" height="50" style="fill:none;"/><clipPath id="_clip1"><rect x="0" y="0" width="75" height="50"/></clipPath><g clip-path="url(#_clip1)"><g id="レイヤー_8"><path d="M75.05,23.048l-13.067,-0.037l5.584,-6.036l-2.875,-2.662l-9.842,10.637l9.784,10.693l2.889,-2.645l-5.549,-6.067l13.067,0.038l0.009,-3.921Z" style="fill:#fff;fill-rule:nonzero;"/><path d="M48.45,24.997c0,0.001 0,0.002 0,0.003c0,12.869 -10.589,23.459 -23.459,23.459c-12.869,0 -23.459,-10.59 -23.459,-23.459c0,-12.869 10.59,-23.459 23.459,-23.459c0.004,0 0.008,0 0.012,0c12.864,0.005 23.447,10.592 23.447,23.456Z" style="fill:#107bd5;fill-rule:nonzero;"/><path d="M25.003,1.541c0.004,0 0.008,0 0.012,0c12.869,0 23.459,10.59 23.459,23.459c0,12.869 -10.59,23.459 -23.459,23.459c-12.87,0 -23.46,-10.59 -23.46,-23.459c0,-0.001 0,-0.002 0,-0.003c0,-12.864 10.583,-23.451 23.448,-23.456m0,-1.541c-0.001,0 -0.002,0 -0.003,0c-13.715,0 -25,11.285 -25,25c0,13.715 11.285,25 25,25c13.715,0 25,-11.285 25,-25c0,-0.001 0,-0.002 0,-0.003c-0.018,-13.706 -11.291,-24.979 -24.997,-24.997Z" style="fill:#fff;fill-rule:nonzero;"/><path d="M28.035,22.976c0,0.906 -1.325,1.64 -2.956,1.64c-1.631,0 -2.96,-0.734 -2.96,-1.64c0,-0.906 1.326,-1.643 2.96,-1.643c1.634,0 2.956,0.734 2.956,1.643Z" style="fill:#ec7d6b;fill-rule:nonzero;"/><path d="M25.003,31.862c4.829,0.004 9.397,-2.228 12.362,-6.041c-1.294,-1.747 -4.585,-3.137 -8.739,-3.652c-1.165,-0.143 -2.365,1.823 -3.623,1.823c-1.258,0 -2.406,-1.969 -3.527,-1.835c-4.192,0.507 -7.53,1.893 -8.832,3.664c2.964,3.812 7.531,6.045 12.359,6.041Z" style="fill:#243c60;fill-rule:nonzero;"/><path d="M24.886,23.998l-4.118,-3.985l-2.54,2.54l4.005,4.026l2.653,-2.581Z" style="fill:#fff;fill-rule:nonzero;"/><path d="M24.889,23.995l4.116,-3.987l2.54,2.542l-4.005,4.023l-2.651,-2.578Z" style="fill:#fff;fill-rule:nonzero;"/><path d="M30.974,14.919c0,4.267 -2.773,7.728 -6.19,7.728c-3.416,0 -6.177,-3.461 -6.177,-7.728l-0.484,-4.529l1.267,-3.542l2.304,-0.382l5.493,0.463l3.12,1.5l1.2,2.657l-0.533,3.833Z" style="fill:#ffca96;fill-rule:nonzero;"/><path d="M24.977,20.177c-1.349,0 -2.406,-0.624 -2.406,-1.422c0.001,-0.134 0.111,-0.243 0.244,-0.245c0.134,0.002 0.242,0.112 0.242,0.245c0,0.443 0.79,0.935 1.92,0.935c1.13,0 1.919,-0.483 1.919,-0.935c0,-0.133 0.109,-0.243 0.242,-0.245c0.134,0.002 0.243,0.111 0.245,0.245c0,0.798 -1.069,1.422 -2.406,1.422Z" style="fill:#34495e;fill-rule:nonzero;"/><path d="M27.292,7.521c-0.748,1.42 -2.003,2.509 -3.515,3.049c-1.75,0.548 -3.563,0.863 -5.395,0.938l0.315,4.806c0,0 -1.553,-1.564 -1.891,-4.806c-0.337,-3.242 2.578,-6.88 5.243,-7.573c2.666,-0.693 5.87,-0.859 8.447,1.955c2.578,2.813 2.386,5.86 1.996,7.404c-0.391,1.543 -1.62,3.239 -1.62,3.239l0.329,-5.406c0,0 -1.797,-1.457 -2.54,-2.191c-0.742,-0.734 -1.369,-1.415 -1.369,-1.415Z" style="fill:#25282d;fill-rule:nonzero;"/><path d="M28.408,13.766c0.003,0.026 0.004,0.052 0.004,0.078c0,0.403 -0.331,0.734 -0.734,0.734c-0.403,0 -0.734,-0.331 -0.734,-0.734c0,-0.402 0.331,-0.733 0.733,-0.734c0.38,-0.02 0.709,0.276 0.731,0.656Z" style="fill:#035;fill-rule:nonzero;"/><path d="M21.126,13.766c-0.003,0.027 -0.004,0.054 -0.004,0.081c0,0.404 0.332,0.737 0.736,0.737c0.405,0 0.737,-0.333 0.737,-0.737c0,-0.404 -0.332,-0.737 -0.737,-0.737c0,0 0,0 -0.001,0c-0.379,-0.018 -0.708,0.276 -0.731,0.656Z" style="fill:#035;fill-rule:nonzero;"/><path d="M20.68,12.134c0.718,-0.179 1.473,-0.135 2.165,0.129c0.23,0.093 0.329,-0.292 0.102,-0.37c-0.758,-0.284 -1.585,-0.329 -2.369,-0.128c-0.241,0.055 -0.139,0.425 0.102,0.369Z" style="fill:#34495e;fill-rule:nonzero;"/><path d="M28.752,11.765c-0.784,-0.201 -1.611,-0.156 -2.368,0.128c-0.228,0.09 -0.129,0.463 0.101,0.37c0.692,-0.263 1.447,-0.308 2.165,-0.129c0.241,0.056 0.343,-0.314 0.102,-0.369Z" style="fill:#34495e;fill-rule:nonzero;"/><path d="M16.783,11.409c0.527,0.117 1.068,0.151 1.605,0.099l0.318,4.832c0,0 -1.579,-1.736 -1.923,-4.931Z" style="fill:#121416;fill-rule:nonzero;"/><path d="M31.19,11.103l1.456,1.358c0,0 -0.073,1.628 -1.774,4.063l0.318,-5.421Z" style="fill:#121416;fill-rule:nonzero;"/><path d="M24.586,16.859c-0.018,0.003 -0.037,0.003 -0.055,0c-0.229,-0.058 -0.448,-0.15 -0.649,-0.274c-0.237,-0.145 -0.398,-0.387 -0.44,-0.661c-0.007,-0.322 0.109,-0.634 0.323,-0.874c0.085,-0.111 0.158,-0.23 0.218,-0.355c0.084,-0.22 0.105,-0.459 0.062,-0.691c-0.118,-0.771 -0.61,-1.436 -1.314,-1.773c-0.099,-0.049 -0.142,-0.168 -0.096,-0.268c0.047,-0.099 0.166,-0.142 0.265,-0.097c0.829,0.4 1.408,1.187 1.541,2.098c0.053,0.304 0.022,0.617 -0.091,0.906c-0.071,0.149 -0.157,0.292 -0.256,0.425c-0.149,0.159 -0.239,0.365 -0.256,0.582c0.03,0.158 0.127,0.295 0.265,0.376c0.167,0.099 0.349,0.172 0.539,0.216c0.084,0.025 0.142,0.104 0.142,0.192c0,0.109 -0.089,0.199 -0.198,0.201l0,-0.003Z" style="fill:#34495e;fill-rule:nonzero;"/><path d="M30.123,15.246c0.278,-0.954 0.98,-1.59 1.567,-1.419c0.586,0.171 0.836,1.085 0.558,2.038c-0.278,0.954 -0.98,1.59 -1.566,1.419c-0.587,-0.171 -0.837,-1.085 -0.559,-2.038Z" style="fill:#ffca96;"/><path d="M17.739,13.807c0.587,-0.17 1.288,0.466 1.565,1.42c0.278,0.954 0.027,1.867 -0.56,2.037c-0.587,0.171 -1.288,-0.465 -1.565,-1.419c-0.278,-0.954 -0.027,-1.867 0.56,-2.038Z" style="fill:#ffca96;"/><path d="M39.916,33.945c0.166,1.456 0.23,3.061 -0.693,4.226c-1.25,1.576 -3.871,1.585 -5.598,0.504c-1.728,-1.08 -2.73,-2.942 -3.496,-4.777c-0.559,-1.319 -1.04,-2.691 -1.115,-4.115c-0.062,-0.673 0.038,-1.351 0.291,-1.978c0.781,-1.713 2.913,-2.33 4.824,-2.782c0.681,-0.157 1.409,-0.314 2.073,-0.099c0.775,0.251 1.288,0.947 1.675,1.634c1.273,2.261 1.754,4.841 2.039,7.387Z" style="fill:#243c60;fill-rule:nonzero;"/><path d="M10.087,33.945c-0.163,1.456 -0.227,3.061 0.696,4.226c1.247,1.576 3.871,1.585 5.595,0.504c1.725,-1.08 2.732,-2.942 3.496,-4.777c0.556,-1.319 1.039,-2.691 1.115,-4.115c0.063,-0.673 -0.037,-1.352 -0.291,-1.978c-0.778,-1.713 -2.913,-2.33 -4.821,-2.782c-0.684,-0.157 -1.409,-0.314 -2.074,-0.099c-0.774,0.251 -1.287,0.947 -1.674,1.634c-1.273,2.261 -1.754,4.841 -2.042,7.387Z" style="fill:#243c60;fill-rule:nonzero;"/><path d="M38.049,35.16c0.182,0.827 0.111,1.689 -0.204,2.475c-0.328,0.789 -1.006,1.381 -1.832,1.6c-0.264,0.068 -0.542,0.06 -0.801,-0.024c-0.382,-0.169 -0.666,-0.504 -0.772,-0.909c-0.099,-0.4 -0.137,-0.814 -0.113,-1.226l0.026,-2.962c0.116,0.055 0.177,-0.149 0.131,-0.268c-0.169,-0.46 -0.638,-0.83 -0.583,-1.317c0.039,-0.245 0.178,-0.464 0.385,-0.603c0.46,-0.296 1.041,-0.336 1.538,-0.107c0.487,0.231 0.904,0.588 1.209,1.034c0.506,0.684 0.853,1.472 1.016,2.307Z" style="fill:#ffca96;fill-rule:nonzero;"/><path d="M11.901,35.16c-0.184,0.826 -0.113,1.69 0.204,2.475c0.328,0.788 1.005,1.38 1.83,1.6c0.263,0.068 0.541,0.06 0.801,-0.024c0.382,-0.169 0.667,-0.504 0.771,-0.909c0.102,-0.4 0.141,-0.814 0.114,-1.226l-0.026,-2.962c-0.117,0.055 -0.175,-0.149 -0.131,-0.268c0.169,-0.46 0.638,-0.83 0.582,-1.317c-0.036,-0.246 -0.176,-0.466 -0.384,-0.603c-0.46,-0.296 -1.041,-0.336 -1.538,-0.107c-0.487,0.232 -0.904,0.589 -1.209,1.034c-0.505,0.684 -0.852,1.472 -1.014,2.307Z" style="fill:#ffca96;fill-rule:nonzero;"/><path d="M15.886,35.002c-0.045,-0.206 -0.125,-0.403 -0.236,-0.582c-0.119,-0.134 -0.291,-0.195 -0.431,-0.321c-0.109,-0.114 -0.184,-0.256 -0.218,-0.41c-0.15,-0.561 -0.043,-1.16 0.291,-1.634c0.032,-0.06 0.083,-0.106 0.145,-0.131c0.052,-0.013 0.106,-0.013 0.158,0c0.255,0.062 0.475,0.223 0.611,0.448c0.056,0.1 0.103,0.204 0.14,0.312l0.656,1.747c0.107,0.292 0.209,0.624 0.043,0.874c-0.151,0.2 -0.415,0.282 -0.652,0.201c-0.236,-0.083 -0.422,-0.268 -0.507,-0.504Z" style="fill:#ffca96;fill-rule:nonzero;"/><path d="M34.062,35.002c0.045,-0.206 0.125,-0.403 0.235,-0.582c0.12,-0.134 0.292,-0.195 0.434,-0.321c0.107,-0.115 0.181,-0.257 0.216,-0.41c0.153,-0.559 0.051,-1.157 -0.277,-1.634c-0.034,-0.059 -0.086,-0.104 -0.148,-0.131c-0.051,-0.014 -0.104,-0.014 -0.155,0c-0.255,0.062 -0.476,0.224 -0.614,0.448c-0.056,0.099 -0.102,0.204 -0.137,0.312l-0.658,1.747c-0.108,0.292 -0.21,0.624 -0.044,0.874c0.151,0.2 0.415,0.282 0.652,0.201c0.232,-0.086 0.413,-0.271 0.496,-0.504Z" style="fill:#ffca96;fill-rule:nonzero;"/><path d="M15.207,34.761c-0.042,-0.207 -0.122,-0.405 -0.236,-0.583c-0.116,-0.137 -0.291,-0.198 -0.431,-0.323c-0.106,-0.116 -0.181,-0.256 -0.218,-0.408c-0.147,-0.561 -0.04,-1.159 0.291,-1.634c0.034,-0.059 0.086,-0.105 0.149,-0.131c0.05,-0.014 0.104,-0.014 0.154,0c0.257,0.061 0.479,0.222 0.615,0.448c0.053,0.1 0.099,0.203 0.137,0.309l0.658,1.748c0.108,0.291 0.21,0.62 0.044,0.874c-0.151,0.201 -0.415,0.283 -0.653,0.203c-0.236,-0.084 -0.423,-0.268 -0.51,-0.503Z" style="fill:#ffca96;fill-rule:nonzero;"/><path d="M34.647,34.761c0.045,-0.207 0.125,-0.404 0.236,-0.583c0.119,-0.137 0.291,-0.198 0.431,-0.323c0.108,-0.114 0.184,-0.255 0.218,-0.408c0.15,-0.561 0.044,-1.16 -0.291,-1.634c-0.032,-0.059 -0.083,-0.106 -0.145,-0.131c-0.052,-0.015 -0.106,-0.015 -0.158,0c-0.256,0.06 -0.477,0.222 -0.611,0.448c-0.056,0.099 -0.103,0.202 -0.14,0.309l-0.656,1.748c-0.107,0.291 -0.209,0.62 -0.043,0.874c0.15,0.201 0.414,0.283 0.652,0.203c0.235,-0.084 0.421,-0.269 0.507,-0.503Z" style="fill:#ffca96;fill-rule:nonzero;"/><path d="M36.022,37.067l-22.041,0l1.235,-8.525l19.312,0l1.494,8.525Z" style="fill:#ffa912;fill-rule:nonzero;"/><path d="M36.022,44.029l-22.041,0l2.135,-14.712l17.608,0l2.298,14.712Z" style="fill:#d86c00;fill-rule:nonzero;"/><rect x="13.981" y="37.067" width="22.044" height="6.961" style="fill:#eda006;"/><path d="M27.796,39.743c0,-0.395 -0.32,-0.715 -0.715,-0.715l-4.159,0c-0.395,0 -0.715,0.32 -0.715,0.715c0,0.394 0.32,0.715 0.715,0.715l4.159,0c0.395,0 0.715,-0.321 0.715,-0.715Z" style="fill:#f98b06;"/><path d="M27.796,39.571c0,-0.395 -0.32,-0.715 -0.715,-0.715l-4.159,0c-0.395,0 -0.715,0.32 -0.715,0.715c0,0.395 0.32,0.715 0.715,0.715l4.159,0c0.395,0 0.715,-0.32 0.715,-0.715Z" style="fill:#fff;"/><path d="M36.025,37.067l-22.044,0l0.134,-0.926l21.747,0l0.163,0.926Z" style="fill:#eda006;fill-rule:nonzero;"/><path d="M35.862,36.141l-1.198,-6.824l-0.94,0l1.069,6.824l-19.667,0l0.99,-6.824l-1.011,0l-0.99,6.824l-0.134,0.926l22.044,0l-0.163,-0.926Z" style="fill:url(#_Linear2);fill-rule:nonzero;"/><path d="M14.342,31.731c0.119,-0.05 0.246,-0.076 0.375,-0.076c0.458,0 0.854,0.329 0.939,0.778l0.754,2.007c0,0 0.222,0.653 -0.34,0.833c-0.338,0.09 -0.693,-0.087 -0.825,-0.41l-0.151,-0.434c0,0 -0.14,-0.405 -0.431,-0.475l-0.204,-0.184l-0.478,3.306l0,2.176c-0.877,-0.215 -1.594,-0.85 -1.914,-1.695c-0.319,-0.845 -0.492,-1.005 -0.107,-2.651c0.212,-0.838 0.611,-1.619 1.165,-2.283c0.554,-0.665 0.606,-0.723 1.217,-0.892Z" style="fill:#ffca96;fill-rule:nonzero;"/><path d="M13.981,39.785l-0.087,0c-1.064,-0.246 -1.938,-1.006 -2.33,-2.024c0,-0.021 -0.557,-1.165 -0.134,-2.986c0.229,-0.917 0.66,-1.772 1.261,-2.502c0.397,-0.469 0.909,-0.827 1.485,-1.04c0.387,-0.14 0.812,-0.126 1.189,0.038c0.406,0.206 0.702,0.582 0.807,1.025l0.731,1.964c0.113,0.328 0.097,0.687 -0.044,1.004c-0.132,0.257 -0.364,0.449 -0.641,0.531c-0.559,0.148 -1.151,-0.114 -1.418,-0.627l-0.292,1.946l0,2.135c-0.001,0.159 -0.071,0.31 -0.192,0.414c-0.095,0.076 -0.213,0.119 -0.335,0.122Zm0.766,-7.573c-0.066,0.001 -0.132,0.012 -0.195,0.032c-0.024,0.011 -0.05,0.02 -0.076,0.026c-0.368,0.151 -0.695,0.389 -0.952,0.693c-0.488,0.597 -0.84,1.293 -1.031,2.039c-0.335,1.433 0.046,2.278 0.061,2.313c0.177,0.448 0.481,0.836 0.874,1.116l0,-1.358c-0.003,-0.025 -0.003,-0.05 0,-0.075l0.477,-3.309c0.03,-0.2 0.168,-0.367 0.359,-0.434c0.19,-0.065 0.402,-0.02 0.55,0.116l0.14,0.108c0.305,0.161 0.539,0.43 0.655,0.754l0.137,0.394c0.038,0.058 0.102,0.131 0.169,0.116c-0.014,0 -0.02,-0.087 -0.038,-0.143l-0.731,-1.972c-0.03,-0.156 -0.119,-0.296 -0.247,-0.39c-0.048,-0.02 -0.1,-0.029 -0.152,-0.026Z" style="fill:#243c60;fill-rule:nonzero;"/><path d="M14.342,31.731c0.119,-0.05 0.246,-0.076 0.375,-0.076c0.458,0 0.854,0.329 0.939,0.778l0.754,2.007c0,0 0.222,0.653 -0.34,0.833c-0.338,0.09 -0.693,-0.087 -0.825,-0.41l-0.151,-0.434c0,0 -0.14,-0.405 -0.431,-0.475l-0.204,-0.184l-0.478,3.306l0,2.176c-0.877,-0.215 -1.594,-0.85 -1.914,-1.695c-0.319,-0.845 -0.492,-1.005 -0.107,-2.651c0.212,-0.838 0.611,-1.619 1.165,-2.283c0.554,-0.665 0.606,-0.723 1.217,-0.892Z" style="fill:#ffca96;fill-rule:nonzero;"/><path d="M35.611,31.731c-0.118,-0.05 -0.246,-0.076 -0.374,-0.076c-0.457,0 -0.853,0.329 -0.937,0.778l-0.742,1.996c0,0 -0.219,0.652 0.343,0.833c0.329,0.075 0.668,-0.099 0.798,-0.411l0.152,-0.434c0,0 0.148,-0.405 0.44,-0.475l0.206,-0.192l0.478,3.306l0,2.176c0.878,-0.217 1.595,-0.855 1.914,-1.701c0.318,-0.847 0.492,-1.005 0.108,-2.651c-0.214,-0.838 -0.612,-1.618 -1.165,-2.284c-0.554,-0.665 -0.615,-0.696 -1.221,-0.865Z" style="fill:#ffca96;fill-rule:nonzero;"/><path d="M35.975,39.785c-0.297,0 -0.542,-0.245 -0.542,-0.542l0,-2.135l-0.291,-1.945c-0.267,0.513 -0.859,0.774 -1.418,0.626c-0.277,-0.082 -0.509,-0.274 -0.641,-0.53c-0.14,-0.313 -0.157,-0.666 -0.05,-0.991l0.749,-2.012c0.107,-0.431 0.398,-0.793 0.795,-0.991c0.377,-0.164 0.802,-0.177 1.188,-0.038c0.571,0.211 1.079,0.564 1.474,1.026c0.611,0.738 1.047,1.604 1.276,2.534c0.42,1.794 -0.125,2.945 -0.151,2.994c-0.392,1.007 -1.26,1.757 -2.313,1.998l-0.076,0.006Zm-0.478,-6.565c0.269,-0.001 0.499,0.197 0.536,0.463l0.475,3.309c0.002,0.025 0.002,0.05 0,0.075l0,1.364c0.392,-0.271 0.696,-0.651 0.874,-1.093c0.026,-0.058 0.408,-0.903 0.079,-2.33c-0.196,-0.757 -0.555,-1.461 -1.052,-2.065c-0.253,-0.298 -0.575,-0.531 -0.938,-0.679l-0.07,-0.023c-0.115,-0.042 -0.242,-0.042 -0.358,0c-0.12,0.086 -0.203,0.214 -0.233,0.358l-0.751,2.039c-0.011,0.047 -0.011,0.096 0,0.143c0.046,0 0.104,-0.079 0.142,-0.14l0.134,-0.381c0.114,-0.33 0.349,-0.605 0.659,-0.766l0.125,-0.12c0.101,-0.099 0.237,-0.154 0.378,-0.154Z" style="fill:#243c60;fill-rule:nonzero;"/><path d="M35.611,31.731c-0.118,-0.05 -0.246,-0.076 -0.374,-0.076c-0.457,0 -0.853,0.329 -0.937,0.778l-0.742,1.996c0,0 -0.219,0.652 0.343,0.833c0.329,0.075 0.668,-0.099 0.798,-0.411l0.152,-0.434c0,0 0.148,-0.405 0.44,-0.475l0.206,-0.192l0.478,3.306l0,2.176c0.878,-0.217 1.595,-0.855 1.914,-1.701c0.318,-0.847 0.492,-1.005 0.108,-2.651c-0.214,-0.838 -0.612,-1.618 -1.165,-2.284c-0.554,-0.665 -0.615,-0.696 -1.221,-0.865Z" style="fill:#ffca96;fill-rule:nonzero;"/><rect x="13.981" y="37.067" width="22.044" height="6.961" style="fill:#eda006;"/><path d="M27.796,39.743c0,-0.395 -0.32,-0.715 -0.715,-0.715l-4.159,0c-0.395,0 -0.715,0.32 -0.715,0.715c0,0.394 0.32,0.715 0.715,0.715l4.159,0c0.395,0 0.715,-0.321 0.715,-0.715Z" style="fill:#f98b06;"/><path d="M27.796,39.571c0,-0.395 -0.32,-0.715 -0.715,-0.715l-4.159,0c-0.395,0 -0.715,0.32 -0.715,0.715c0,0.395 0.32,0.715 0.715,0.715l4.159,0c0.395,0 0.715,-0.32 0.715,-0.715Z" style="fill:#fff;"/></g></g><defs><linearGradient id="_Linear2" x1="0" y1="0" x2="1" y2="0" gradientUnits="userSpaceOnUse" gradientTransform="matrix(4.74599e-16,7.75079,-7.75079,4.74599e-16,25.0029,29.3167)"><stop offset="0" style="stop-color:#ffea80;stop-opacity:0"/><stop offset="0" style="stop-color:#ffea80;stop-opacity:0"/><stop offset="0.12" style="stop-color:#ffea80;stop-opacity:0.18"/><stop offset="0.25" style="stop-color:#ffea80;stop-opacity:0.34"/><stop offset="0.37" style="stop-color:#ffea80;stop-opacity:0.47"/><stop offset="0.5" style="stop-color:#ffea80;stop-opacity:0.58"/><stop offset="0.62" style="stop-color:#ffea80;stop-opacity:0.66"/><stop offset="0.75" style="stop-color:#ffea80;stop-opacity:0.72"/><stop offset="0.87" style="stop-color:#ffea80;stop-opacity:0.75"/><stop offset="1" style="stop-color:#ffea80;stop-opacity:0.77"/></linearGradient></defs></svg>